<svg width="100" height="100" viewBox="0 0 400 400" fill="none" xmlns="http://www.w3.org/2000/svg">
<path d="M196 325V263.492H167C150.431 263.492 137 250.167 137 233.73V180.159H75V245.635C75 289.467 110.817 325 155 325H196Z" fill="#A5CF6F"/>
<path d="M325 180.159H262H206V233.73H262C262 250.167 248.569 263.492 232 263.492H206V325H245C289.183 325 325 289.467 325 245.635V180.159Z" fill="#F2994A"/>
<path d="M206 75V137.5H232C248.569 137.5 262 150.825 262 167.262V168.254H325V154.365C325 110.533 289.183 75 245 75H206Z" fill="#9B51E0"/>
<path d="M75 154.365C75 110.533 110.817 75 155 75H196V137.5H167C150.431 137.5 137 150.825 137 167.262V168.254H75V154.365Z" fill="black"/>
</svg>
